John Carter (2012)


Dual Audio][ENG(5.1)-HINDI(2ch)]-{deven}
Format : Matroska
Format version : Version 2
File size : 4.16 GiB
Duration : 2h 12mn
Overall bit rate mode : Variable
Overall bit rate : 4 515 Kbps
Movie name : John Carter(2012) 1080p

[Dual Audio][ENG(5.1)-HINDI(2ch)]-{deven}
Encoded date : UTC 2012-06-14 07:06:07
Writing application : mkvmerge v5.6.0 ('Kenya

Kane') built on May 27 2012 16:44:04
Writing library : libebml v1.2.3 +

libmatroska v1.3.0

Video
ID : 1
Format : AVC
Format/Info : Advanced Video Codec
Format profile : High@L4.1
Format settings, CABAC : Yes
Format settings, ReFrames : 3 frames
Muxing mode : Header stripping
Codec ID : V_MPEG4/ISO/AVC
Duration : 2h 12mn
Bit rate mode : Variable
Bit rate : 3 939 Kbps
Maximum bit rate : 40.0 Mbps
Width : 1 920 pixels
Height : 800 pixels
Display aspect ratio : 2.40:1
Frame rate : 23.976 fps
Color space : YUV
Chroma subsampling : 4:2:0
Bit depth : 8 bits
Scan type : Progressive
Bits/(Pixel*Frame) : 0.107
Stream size : 3.55 GiB (85%)
Writing library : x264 core 122 r2184 5c85e0a
Default : Yes
Forced : No

Audio #1
ID : 2
Format : AC-3
Format/Info : Audio Coding 3
Mode extension : CM (complete main)
Muxing mode : Header stripping
Codec ID : A_AC3
Duration : 2h 12mn
Bit rate mode : Constant
Bit rate : 384 Kbps
Channel(s) : 6 channels
Channel positions : Front: L C R, Side: L R,

LFE
Sampling rate : 48.0 KHz
Bit depth : 16 bits
Compression mode : Lossy
Stream size : 363 MiB (9%)
Default : Yes
Forced : No

Audio #2
ID : 3
Format : AC-3
Format/Info : Audio Coding 3
Mode extension : CM (complete main)
Muxing mode : Header stripping
Codec ID : A_AC3
Duration : 2h 12mn
Bit rate mode : Constant
Bit rate : 192 Kbps
Channel(s) : 2 channels
Channel positions : Front: L R
Sampling rate : 48.0 KHz
Bit depth : 16 bits
Compression mode : Lossy
Stream size : 181 MiB (4%)
Title : Original {deven}
Language : Hindi
Default : No
Forced : No

Text #1
ID : 4
Format : PGS
Muxing mode : zlib
Codec ID : S_HDMV/PGS
Codec ID/Info : The same subtitle format

used on BDs/HD-DVDs
Title : Bluray
Language : English
Default : Yes
Forced : No

Text #2
ID : 5
Format : PGS
Muxing mode : zlib
Codec ID : S_HDMV/PGS
Codec ID/Info : The same subtitle format

used on BDs/HD-DVDs
Default : No
Forced : No

Menu
00:00:00.000 : en:01 Opening credits
00:04:01.241 : en:02 The Will
00:10:22.913 : en:03 Striking gold
00:20:08.790 : en:04 A new world
00:27:05.206 : en:05 Barsoom
00:37:29.163 : en:06 The voice of Barsoom
00:47:43.569 : en:07 Dotar Sojat
00:58:51.653 : en:08 The ninth ray
01:07:42.433 : en:09 The Iss
01:15:01.038 : en:10 Two cities united
01:22:34.199 : en:11 The key to Jasoom
01:30:29.799 : en:12 The destruction of a

world
01:37:02.066 : en:13 The arena
01:46:52.030 : en:14 Change of heart
01:53:48.988 : en:15 The empty tomb
02:02:54.533 : en:16 End credits

